<svg width="127" height="37" viewBox="0 0 127 37" fill="none" xmlns="http://www.w3.org/2000/svg">
<path d="M6.92207 23.2005C6.79975 22.4778 6.47728 21.6994 5.95465 20.8654C5.43202 20.0203 4.68699 19.2363 3.71957 18.5136C2.76327 17.7908 1.80697 17.3293 0.850664 17.1291V16.4286C1.79585 16.2062 2.70211 15.7948 3.56945 15.1943C4.44792 14.5827 5.18182 13.8488 5.77117 12.9926C6.37164 12.1141 6.75527 11.2468 6.92207 10.3905H7.62262C7.7227 10.9465 7.92285 11.5192 8.22309 12.1086C8.52332 12.6868 8.90695 13.2428 9.37398 13.7765C9.85214 14.2992 10.3859 14.7717 10.9752 15.1943C11.8537 15.817 12.7488 16.2284 13.6607 16.4286V17.1291C13.0491 17.2515 12.4152 17.5017 11.7592 17.8797C11.1142 18.2578 10.5138 18.7082 9.95777 19.2308C9.40178 19.7423 8.94587 20.2816 8.59004 20.8487C8.06741 21.6827 7.74494 22.4666 7.62262 23.2005H6.92207ZM16.0478 10.2071C16.2702 10.2071 16.4648 10.2849 16.6316 10.4406C16.8095 10.5851 16.8985 10.8187 16.8985 11.1411C16.8985 11.4525 16.8095 11.686 16.6316 11.8417C16.4648 11.9974 16.2702 12.0752 16.0478 12.0752C15.8032 12.0752 15.5975 11.9974 15.4307 11.8417C15.2639 11.686 15.1805 11.4525 15.1805 11.1411C15.1805 10.8187 15.2639 10.5851 15.4307 10.4406C15.5975 10.2849 15.8032 10.2071 16.0478 10.2071ZM19.1439 18.3301L19.6609 16.7622L18.4099 15.9115H19.9612L20.5116 14.2436L21.062 15.9115H22.6132L21.3622 16.7622L21.8793 18.3301L20.5116 17.346L19.1439 18.3301Z" fill="#A06E2F"/>
<path d="M40.9799 7.68492C40.0792 5.4832 37.6773 4.11547 35.2088 4.11547C28.6703 4.11547 29.0706 15.3242 29.0706 15.3242C29.0706 15.3242 28.5369 26.4996 35.2088 26.4996C38.3445 26.4996 40.9799 23.4973 42.5478 19.3273V22.8634C41.1801 25.0318 39.1785 27.1001 35.2088 27.1001C25.4345 27.1001 26.0683 15.4243 26.0683 15.4243C26.0683 15.4243 25.5012 3.515 35.2088 3.515C37.4438 3.515 39.4788 4.18219 41.08 5.75008C41.914 6.41726 42.1475 3.64844 42.1475 3.64844H42.4811V12.8223H41.8806C41.8806 12.8223 41.7138 9.68648 40.9799 7.68492ZM50.4717 3.64844V3.98203C50.4717 3.98203 48.4034 4.34898 48.4034 6.8843V23.7641C48.4034 26.3328 50.4717 26.6664 50.4717 26.6664V27H43.3995V26.6664C43.3995 26.6664 45.5012 26.3328 45.5012 23.7641V6.8843C45.5012 4.34898 43.3995 3.98203 43.3995 3.98203V3.64844H50.4717ZM66.2919 6.31719V24.3312C66.2919 26.5663 68.3602 26.6664 68.3602 26.6664V27H61.288V26.6664C61.288 26.6664 63.3896 26.5997 63.3896 24.3312V23.7308L56.4175 7.31797V24.3312C56.4175 26.5663 58.4858 26.6664 58.4858 26.6664V27H51.4136V26.6664C51.4136 26.6664 53.4819 26.5997 53.4819 24.3312V6.31719C53.4819 4.08211 51.4136 3.98203 51.4136 3.98203V3.64844H58.4858V3.98203C58.4858 3.98203 56.8845 4.04875 56.4842 5.58328L63.3896 21.7959V6.31719C63.3896 4.08211 61.288 3.98203 61.288 3.98203V3.64844H68.3602V3.98203C68.3602 3.98203 66.2919 4.04875 66.2919 6.31719ZM72.0714 3.64844H78.9434H81.879V10.5538H81.5454C81.5454 10.5538 81.5454 4.2489 78.6432 4.2489H78.2429C77.6424 4.5825 76.8751 5.31641 76.8751 6.8843V23.7641C76.8751 26.2995 78.9434 26.6664 78.9434 26.6664V27H75.7076H75.3406H72.0714V26.6664C72.0714 26.6664 74.173 26.2995 74.173 23.7641V6.8843C74.173 5.31641 73.3724 4.5825 72.7719 4.2489H72.3716C69.4693 4.2489 69.4693 10.5538 69.4693 10.5538H69.1358V3.64844H72.0714ZM80.6682 27L80.7349 26.6664C80.7349 26.6664 82.8699 26.2995 83.3369 23.7641L87.6737 6.8843C88.0406 5.04953 87.0398 4.34898 86.4727 4.11547C86.2059 4.01539 86.0391 3.98203 86.0391 3.98203L85.939 3.64844H93.0112L93.1112 3.98203C93.1112 3.98203 91.1097 4.31562 91.8102 6.8843L96.3471 23.7641C97.0143 26.2995 99.1826 26.6664 99.1826 26.6664L99.2827 27H92.3773L92.2773 26.6664C92.2773 26.6664 94.2788 26.2995 93.5783 23.7641L92.4441 18.9937H85.4052L84.2043 23.7641C83.7706 26.2995 85.7722 26.6664 85.7722 26.6664L85.7388 27H80.6682ZM85.6387 18.3266L92.1772 18.3599L88.6744 5.85016L85.6387 18.3266Z" fill="#A06E2F"/>
<path d="M103.921 18.3301L104.438 16.7622L103.187 15.9115H104.738L105.288 14.2436L105.839 15.9115H107.39L106.139 16.7622L106.656 18.3301L105.288 17.346L103.921 18.3301ZM109.767 10.2071C109.989 10.2071 110.184 10.2849 110.351 10.4406C110.529 10.5851 110.618 10.8187 110.618 11.1411C110.618 11.4525 110.529 11.686 110.351 11.8417C110.184 11.9974 109.989 12.0752 109.767 12.0752C109.522 12.0752 109.317 11.9974 109.15 11.8417C108.983 11.686 108.9 11.4525 108.9 11.1411C108.9 10.8187 108.983 10.5851 109.15 10.4406C109.317 10.2849 109.522 10.2071 109.767 10.2071ZM118.201 23.2005C118.078 22.4778 117.756 21.6994 117.233 20.8654C116.71 20.0203 115.965 19.2363 114.998 18.5136C114.042 17.7908 113.085 17.3293 112.129 17.1291V16.4286C113.074 16.2062 113.981 15.7948 114.848 15.1943C115.726 14.5827 116.46 13.8488 117.05 12.9926C117.65 12.1141 118.034 11.2468 118.201 10.3905H118.901C119.001 10.9465 119.201 11.5192 119.502 12.1086C119.802 12.6868 120.185 13.2428 120.652 13.7765C121.131 14.2992 121.664 14.7717 122.254 15.1943C123.132 15.817 124.027 16.2284 124.939 16.4286V17.1291C124.328 17.2515 123.694 17.5017 123.038 17.8797C122.393 18.2578 121.792 18.7082 121.236 19.2308C120.68 19.7423 120.224 20.2816 119.869 20.8487C119.346 21.6827 119.023 22.4666 118.901 23.2005H118.201Z" fill="#A06E2F"/>
</svg>
